<svg xmlns="http://www.w3.org/2000/svg" viewBox="0 0 800 200" fill="none">
  <defs>
    <linearGradient id="bgGradientDark" x1="0%" y1="0%" x2="100%" y2="100%">
      <stop offset="0%" style="stop-color:#0f172a"/>
      <stop offset="100%" style="stop-color:#1e293b"/>
    </linearGradient>
  </defs>

  <!-- Background -->
  <rect width="800" height="200" rx="12" fill="url(#bgGradientDark)"/>

  <!-- Flow icon (larger, positioned left of center) -->
  <g transform="translate(240, 36) scale(8)">
    <path fill-rule="evenodd" clip-rule="evenodd" fill="#1c64fd" d="M13.6 5.5998C14.9255 5.5998 16 4.52529 16 3.1998C16 1.87432 14.9255 0.799805 13.6 0.799805C12.5373 0.799805 11.6359 1.49055 11.3203 2.44757C8.9912 2.77772 7.2 4.77958 7.2 7.1998V8.7998C7.2 10.348 6.10053 11.6394 4.63979 11.9358C4.29294 11.0372 3.42091 10.3998 2.4 10.3998C1.07452 10.3998 0 11.4743 0 12.7998C0 14.1253 1.07452 15.1998 2.4 15.1998C3.46274 15.1998 4.36414 14.5091 4.67975 13.552C7.0088 13.2219 8.8 11.22 8.8 8.7998V7.1998C8.8 5.6516 9.89947 4.36019 11.3602 4.06378C11.7071 4.96236 12.5791 5.5998 13.6 5.5998ZM13.6 3.9998C14.0418 3.9998 14.4 3.64163 14.4 3.1998C14.4 2.75798 14.0418 2.3998 13.6 2.3998C13.1582 2.3998 12.8 2.75798 12.8 3.1998C12.8 3.64163 13.1582 3.9998 13.6 3.9998ZM2.4 13.5998C2.84183 13.5998 3.2 13.2416 3.2 12.7998C3.2 12.358 2.84183 11.9998 2.4 11.9998C1.95817 11.9998 1.6 12.358 1.6 12.7998C1.6 13.2416 1.95817 13.5998 2.4 13.5998Z"/>
  </g>

  <!-- PyWorkflow text -->
  <text x="390" y="105" font-family="system-ui, -apple-system, sans-serif" font-size="42" font-weight="700" fill="#ffffff">PyWorkflow</text>

  <!-- By FlowHunt subscript -->
  <text x="390" y="135" font-family="system-ui, -apple-system, sans-serif" font-size="16" font-weight="400" fill="#94a3b8">by FlowHunt</text>

  <!-- Decorative dots -->
  <circle cx="80" cy="40" r="4" fill="#1c64fd" opacity="0.3"/>
  <circle cx="120" cy="70" r="3" fill="#1c64fd" opacity="0.2"/>
  <circle cx="720" cy="160" r="4" fill="#1c64fd" opacity="0.3"/>
  <circle cx="680" cy="130" r="3" fill="#1c64fd" opacity="0.2"/>
</svg>
